0
SECTION
2
HEADER
9
$INSUNITS
70
4
9
$ACADVER
1
AC1014
9
$HANDSEED
5
FFFF
0
ENDSEC
0
SECTION
2
TABLES
0
TABLE
2
VPORT
5
8
100
AcDbSymbolTable
0
ENDTAB
0
TABLE
2
LTYPE
5
5
100
AcDbSymbolTable
0
LTYPE
5
14
100
AcDbSymbolTableRecord
100
AcDbLinetypeTableRecord
2
BYBLOCK
70
0
0
LTYPE
5
15
100
AcDbSymbolTableRecord
100
AcDbLinetypeTableRecord
2
BYLAYER
70
0
0
ENDTAB
0
TABLE
2
LAYER
5
2
100
AcDbSymbolTable
70
2
0
LAYER
5
50
100
AcDbSymbolTableRecord
100
AcDbLayerTableRecord
2
0
70
0
6
CONTINUOUS
0
ENDTAB
0
TABLE
2
STYLE
5
3
100
AcDbSymbolTable
70
1
0
STYLE
5
11
100
AcDbSymbolTableRecord
100
AcDbTextStyleTableRecord
2
STANDARD
70
0
0
ENDTAB
0
TABLE
2
VIEW
5
6
100
AcDbSymbolTable
70
0
0
ENDTAB
0
TABLE
2
UCS
5
7
100
AcDbSymbolTable
70
0
0
ENDTAB
0
TABLE
2
APPID
5
9
100
AcDbSymbolTable
70
2
0
APPID
5
12
100
AcDbSymbolTableRecord
100
AcDbRegAppTableRecord
2
ACAD
70
0
0
ENDTAB
0
TABLE
2
DIMSTYLE
5
A
100
AcDbSymbolTable
70
1
0
ENDTAB
0
TABLE
2
BLOCK_RECORD
5
1
100
AcDbSymbolTable
70
1
0
BLOCK_RECORD
5
1F
100
AcDbSymbolTableRecord
100
AcDbBlockTableRecord
2
*MODEL_SPACE
0
BLOCK_RECORD
5
1B
100
AcDbSymbolTableRecord
100
AcDbBlockTableRecord
2
*PAPER_SPACE
0
ENDTAB
0
ENDSEC
0
SECTION
2
BLOCKS
0
BLOCK
5
20
100
AcDbEntity
100
AcDbBlockBegin
2
*MODEL_SPACE
0
ENDBLK
5
21
100
AcDbEntity
100
AcDbBlockEnd
0
BLOCK
5
1C
100
AcDbEntity
100
AcDbBlockBegin
2
*PAPER_SPACE
0
ENDBLK
5
1D
100
AcDbEntity
100
AcDbBlockEnd
0
ENDSEC
0
SECTION
2
ENTITIES
0
LWPOLYLINE
5
100
100
AcDbEntity
8
0
100
AcDbPolyline
90
4
70
1
43
0.0
10
145.5
20
-72.259999999999977
10
159.5
20
-72.259999999999977
10
159.5
20
-58.260000000000012
10
145.5
20
-58.260000000000012
0
LWPOLYLINE
5
101
100
AcDbEntity
8
0
100
AcDbPolyline
90
4
70
1
43
0.0
10
216.65000000000006
20
-85
10
202.65000000000001
20
-85
10
202.65000000000001
20
-99
10
216.65000000000006
20
-99
0
LWPOLYLINE
5
102
100
AcDbEntity
8
0
100
AcDbPolyline
90
4
70
1
43
0.0
10
216.65000000000006
20
-60.899999999999999
10
216.65000000000006
20
-46.900000000000013
10
202.65000000000001
20
-46.900000000000013
10
202.65000000000001
20
-60.899999999999999
0
LINE
5
103
100
AcDbEntity
8
0
100
AcDbLine
10
227.20500000000001
20
-57.69999670391315
30
0
11
224.71179729332778
21
-57.69671287593706
31
0
0
LWPOLYLINE
5
104
100
AcDbEntity
8
0
100
AcDbPolyline
90
4
70
1
43
0.0
10
202.65000000000001
20
-79.950000000000017
10
216.65000000000006
20
-79.950000000000017
10
216.65000000000006
20
-65.949999999999989
10
202.65000000000001
20
-65.949999999999989
0
LWPOLYLINE
5
105
100
AcDbEntity
8
0
100
AcDbPolyline
90
4
70
1
43
0.0
10
145.5
20
-110.36000000000001
10
159.5
20
-110.36000000000001
10
159.5
20
-96.360000000000014
10
145.5
20
-96.360000000000014
0
LWPOLYLINE
5
106
100
AcDbEntity
8
0
100
AcDbPolyline
90
4
70
1
43
0.0
10
145.5
20
-53.210000000000022
10
159.5
20
-53.210000000000022
10
159.5
20
-39.210000000000001
10
145.5
20
-39.210000000000001
0
ARC
5
107
100
AcDbEntity
8
0
100
AcDbCircle
10
227.21000502243641
20
-53.90000000000007
30
0
40
3.7999999999999861
210
0
220
0
230
1
100
AcDbArc
50
-90.075464932864904
51
90
0
LINE
5
108
100
AcDbEntity
8
0
100
AcDbLine
10
224.71179729332778
20
-57.69671287593706
30
0
11
224.51179729332779
21
-57.69671287593706
31
0
0
LINE
5
109
100
AcDbEntity
8
0
100
AcDbLine
10
227.21000502243641
20
-50.100000000000087
30
0
11
224.71179729332778
21
-50.100000000000087
31
0
0
LINE
5
110
100
AcDbEntity
8
0
100
AcDbLine
10
224.71179729332778
20
-50.100000000000087
30
0
11
224.51179729332779
21
-50.100000000000087
31
0
0
LWPOLYLINE
5
111
100
AcDbEntity
8
0
100
AcDbPolyline
90
4
70
1
43
0.0
10
197.60000000000002
20
-59.400000000000013
10
197.60000000000002
20
-45.40000000000002
10
183.59999999999999
20
-45.40000000000002
10
183.59999999999999
20
-59.400000000000013
0
LWPOLYLINE
5
112
100
AcDbEntity
8
0
100
AcDbPolyline
90
4
70
1
43
0.0
10
159.5
20
-77.310000000000002
10
145.5
20
-77.310000000000002
10
145.5
20
-91.310000000000002
10
159.5
20
-91.310000000000002
0
LWPOLYLINE
5
113
100
AcDbEntity
8
0
100
AcDbPolyline
90
4
70
1
43
0.0
10
197.60000000000002
20
-78.450000000000003
10
197.60000000000002
20
-64.449999999999989
10
183.59999999999999
20
-64.449999999999989
10
183.59999999999999
20
-78.450000000000003
0
LINE
5
114
100
AcDbEntity
8
0
100
AcDbLine
10
221.1901630393732
20
-38.925421837634829
30
0
11
222.89436622101016
21
-40.417765944195537
31
0
0
LWPOLYLINE
5
115
100
AcDbEntity
8
0
100
AcDbPolyline
90
4
70
1
43
0.0
10
149.898
20
-117.82800000000002
10
135.898
20
-117.82800000000002
10
135.898
20
-131.828
10
149.898
20
-131.828
0
LINE
5
116
100
AcDbEntity
8
0
100
AcDbLine
10
222.89436622101016
20
-40.417765944195537
30
0
11
223.96000066007517
21
-42.25158130681443
31
0
0
LINE
5
117
100
AcDbEntity
8
0
100
AcDbLine
10
170.93684153864297
20
-140.70499975062629
30
0
11
111.61599948102726
21
-140.70499975062626
31
0
0
LINE
5
118
100
AcDbEntity
8
0
100
AcDbLine
10
127.72449330385624
20
-30.888613482233769
30
0
11
172.06976201982729
21
-30.886986577981137
31
0
0
LINE
5
119
100
AcDbEntity
8
0
100
AcDbLine
10
75.851702760439579
20
-110.7414850653532
30
0
11
75.897168194561175
21
-50.006406788874962
31
0
0
LWPOLYLINE
5
120
100
AcDbEntity
8
0
100
AcDbPolyline
90
4
70
1
43
0.0
10
107.40000000000002
20
-95.099999999999994
10
121.40000000000001
20
-95.099999999999994
10
121.40000000000001
20
-81.09999999999998
10
107.40000000000002
20
-81.09999999999998
0
LWPOLYLINE
5
121
100
AcDbEntity
8
0
100
AcDbPolyline
90
4
70
1
43
0.0
10
107.40000000000002
20
-62.049999999999997
10
107.40000000000002
20
-76.049999999999983
10
121.40000000000001
20
-76.049999999999983
10
121.40000000000001
20
-62.049999999999997
0
LWPOLYLINE
5
122
100
AcDbEntity
8
0
100
AcDbPolyline
90
4
70
1
43
0.0
10
164.55000000000001
20
-59.650000000000027
10
164.55000000000001
20
-73.650000000000006
10
178.55000000000001
20
-73.650000000000006
10
178.55000000000001
20
-59.650000000000027
0
LWPOLYLINE
5
123
100
AcDbEntity
8
0
100
AcDbPolyline
90
4
70
1
43
0.0
10
140.44999999999999
20
-92.700000000000017
10
140.44999999999999
20
-78.700000000000017
10
126.45000000000003
20
-78.700000000000017
10
126.45000000000003
20
-92.700000000000017
0
LWPOLYLINE
5
124
100
AcDbEntity
8
0
100
AcDbPolyline
90
4
70
1
43
0.0
10
183.59999999999999
20
-116.55000000000001
10
197.60000000000002
20
-116.55000000000001
10
197.60000000000002
20
-102.55000000000001
10
183.59999999999999
20
-102.55000000000001
0
LINE
5
125
100
AcDbEntity
8
0
100
AcDbLine
10
218.39805141093774
20
-125.99399975062627
30
0
11
183.49386668485778
21
-125.99399975062627
31
0
0
LWPOLYLINE
5
126
100
AcDbEntity
8
0
100
AcDbPolyline
90
4
70
1
43
0.0
10
183.59999999999999
20
-83.5
10
183.59999999999999
20
-97.5
10
197.60000000000002
20
-97.5
10
197.60000000000002
20
-83.5
0
LINE
5
127
100
AcDbEntity
8
0
100
AcDbLine
10
223.96000066007517
20
-42.25158130681443
30
0
11
224.51179729332779
21
-44.184772270209919
31
0
0
LINE
5
128
100
AcDbEntity
8
0
100
AcDbLine
10
219.44234649245846
20
-125.90233748641754
30
0
11
218.39805141093774
21
-125.99399975062627
31
0
0
LWPOLYLINE
5
129
100
AcDbEntity
8
0
100
AcDbPolyline
90
4
70
1
43
0.0
10
130.85000000000002
20
-133.19999999999999
10
130.85000000000002
20
-119.20000000000002
10
116.85000000000002
20
-119.20000000000002
10
116.85000000000002
20
-133.19999999999999
0
LINE
5
130
100
AcDbEntity
8
0
100
AcDbLine
10
81.521927872157789
20
-30.890308525523839
30
0
11
120.12449330385621
21
-30.888892305041207
31
0
0
LWPOLYLINE
5
131
100
AcDbEntity
8
0
100
AcDbPolyline
90
4
70
1
43
0.0
10
121.40000000000001
20
-100.15000000000001
10
107.40000000000002
20
-100.15000000000001
10
107.40000000000002
20
-114.15000000000001
10
121.40000000000001
20
-114.15000000000001
0
LINE
5
132
100
AcDbEntity
8
0
100
AcDbLine
10
219.2335300135548
20
-37.982630784691729
30
0
11
221.1901630393732
21
-38.925421837634829
31
0
0
LINE
5
133
100
AcDbEntity
8
0
100
AcDbLine
10
172.06976201982729
20
-30.886986577981137
30
0
11
219.2335300135548
21
-37.982630784691729
31
0
0
LINE
5
134
100
AcDbEntity
8
0
100
AcDbLine
10
224.51179729332779
20
-44.184772270209919
30
0
11
224.51179729332779
21
-50.100000000000087
31
0
0
LINE
5
135
100
AcDbEntity
8
0
100
AcDbLine
10
224.51179729332779
20
-57.69671287593706
30
0
11
224.51179729332779
21
-107.24673768010564
31
0
0
LINE
5
136
100
AcDbEntity
8
0
100
AcDbLine
10
111.61599948102726
20
-140.70499975062626
30
0
11
99.889871987918838
21
-147.49360670703791
31
0
0
LINE
5
137
100
AcDbEntity
8
0
100
AcDbLine
10
227.20999665468935
20
-114.84673768010563
30
0
11
224.51179729332779
21
-114.84673768010563
31
0
0
LWPOLYLINE
5
138
100
AcDbEntity
8
0
100
AcDbPolyline
90
4
70
1
43
0.0
10
164.55000000000001
20
-78.700000000000017
10
164.55000000000001
20
-92.700000000000017
10
178.55000000000001
20
-92.700000000000017
10
178.55000000000001
20
-78.700000000000017
0
LWPOLYLINE
5
139
100
AcDbEntity
8
0
100
AcDbPolyline
90
4
70
1
43
0.0
10
178.55000000000001
20
-40.600000000000016
10
164.55000000000001
20
-40.600000000000016
10
164.55000000000001
20
-54.600000000000009
10
178.55000000000001
20
-54.600000000000009
0
LWPOLYLINE
5
140
100
AcDbEntity
8
0
100
AcDbPolyline
90
4
70
1
43
0.0
10
126.45000000000003
20
-97.75
10
126.45000000000003
20
-111.75
10
140.44999999999999
20
-111.75
10
140.44999999999999
20
-97.75
0
LWPOLYLINE
5
141
100
AcDbEntity
8
0
100
AcDbPolyline
90
4
70
1
43
0.0
10
140.44999999999999
20
-59.650000000000027
10
126.45000000000003
20
-59.650000000000027
10
126.45000000000003
20
-73.650000000000006
10
140.44999999999999
20
-73.650000000000006
0
LWPOLYLINE
5
142
100
AcDbEntity
8
0
100
AcDbPolyline
90
4
70
1
43
0.0
10
97.474800000000016
20
-91.285149999999987
10
83.47480000000003
20
-91.285149999999987
10
83.47480000000003
20
-105.28515
10
97.474800000000016
20
-105.28515
0
LINE
5
143
100
AcDbEntity
8
0
100
AcDbLine
10
83.417765363576692
20
-130.16404914250185
30
0
11
83.591048871280407
21
-130.06418510514155
31
0
0
LWPOLYLINE
5
144
100
AcDbEntity
8
0
100
AcDbPolyline
90
4
70
1
43
0.0
10
202.65000000000001
20
-104.05000000000001
10
202.65000000000001
20
-118.05
10
216.65000000000006
20
-118.05
10
216.65000000000006
20
-104.05000000000001
0
LWPOLYLINE
5
145
100
AcDbEntity
8
0
100
AcDbPolyline
90
4
70
1
43
0.0
10
140.44999999999999
20
-54.600000000000009
10
140.44999999999999
20
-40.600000000000016
10
126.45000000000003
20
-40.600000000000016
10
126.45000000000003
20
-54.600000000000009
0
LWPOLYLINE
5
146
100
AcDbEntity
8
0
100
AcDbPolyline
90
4
70
1
43
0.0
10
121.40000000000001
20
-43
10
107.40000000000002
20
-43
10
107.40000000000002
20
-57
10
121.40000000000001
20
-57
0
LINE
5
147
100
AcDbEntity
8
0
100
AcDbLine
10
224.51179729332779
20
-119.97438988705782
30
0
11
224.38704083484143
21
-121.00527220191908
31
0
0
LINE
5
148
100
AcDbEntity
8
0
100
AcDbLine
10
227.20999665468935
20
-107.24673768010564
30
0
11
224.51179729332779
21
-107.24673768010564
31
0
0
LINE
5
149
100
AcDbEntity
8
0
100
AcDbLine
10
96.806706149609539
20
-148.24626246431464
30
0
11
95.428468308389483
21
-147.96823177588399
31
0
0
LINE
5
150
100
AcDbEntity
8
0
100
AcDbLine
10
173.1606719491607
20
-140.22909670013516
30
0
11
171.966588200817
21
-140.60304463555957
31
0
0
LINE
5
151
100
AcDbEntity
8
0
100
AcDbLine
10
75.697168250599262
20
-50.00625707170105
30
0
11
75.897168194561175
21
-50.006406788874962
31
0
0
LINE
5
152
100
AcDbEntity
8
0
100
AcDbLine
10
127.72449330385624
20
-28.188752891884089
30
0
11
127.72449330385624
21
-30.888613482233769
31
0
0
LINE
5
153
100
AcDbEntity
8
0
100
AcDbLine
10
94.129999999999995
20
-78.689935110654147
30
0
11
99.230000014901165
21
-78.689935110654147
31
0
0
LINE
5
154
100
AcDbEntity
8
0
100
AcDbLine
10
220.66351659026455
20
-125.52126312965548
30
0
11
219.44234649245846
21
-125.90233748641754
31
0
0
LINE
5
155
100
AcDbEntity
8
0
100
AcDbLine
10
78.474478439863773
20
-31.871258604199383
30
0
11
79.475651931159121
21
-31.3285821658123
31
0
0
LINE
5
156
100
AcDbEntity
8
0
100
AcDbLine
10
98.127689759061838
20
-148.15754630518424
30
0
11
96.806706149609539
21
-148.24626246431464
31
0
0
LINE
5
157
100
AcDbEntity
8
0
100
AcDbLine
10
93.256905210200955
20
-146.5585543885494
30
0
11
92.647191279312437
21
-145.77835172817043
31
0
0
ARC
5
158
100
AcDbEntity
8
0
100
AcDbCircle
10
123.92449330385622
20
-28.188752891884089
30
0
40
3.8000000000000078
210
0
220
0
230
1
100
AcDbArc
50
0
51
180
0
LINE
5
159
100
AcDbEntity
8
0
100
AcDbLine
10
223.44870983726861
20
-123.22895428631318
30
0
11
222.67561029279818
21
-124.16681275009682
31
0
0
LINE
5
160
100
AcDbEntity
8
0
100
AcDbLine
10
76.002480083667393
20
-35.565384638163678
30
0
11
76.345390319279218
21
-34.458643255795842
31
0
0
LWPOLYLINE
5
161
100
AcDbEntity
8
0
100
AcDbPolyline
90
4
70
1
43
0.0
10
168.94999999999996
20
-116.8
10
154.94999999999999
20
-116.8
10
154.94999999999999
20
-130.79999999999998
10
168.94999999999996
20
-130.79999999999998
0
LINE
5
162
100
AcDbEntity
8
0
100
AcDbLine
10
224.38704083484143
20
-121.00527220191908
30
0
11
224.03263512616408
21
-122.14996190465845
31
0
0
LINE
5
163
100
AcDbEntity
8
0
100
AcDbLine
10
85.041455389818111
20
-138.00006907106098
30
0
11
87.38588543943267
21
-136.6489638610739
31
0
0
LINE
5
164
100
AcDbEntity
8
0
100
AcDbLine
10
221.73775182901488
20
-124.93991229456694
30
0
11
220.66351659026455
21
-125.52126312965548
31
0
0
LINE
5
165
100
AcDbEntity
8
0
100
AcDbLine
10
76.880144095179745
20
-117.9807790933787
30
0
11
76.480935496507399
21
-116.45998443176963
31
0
0
LINE
5
166
100
AcDbEntity
8
0
100
AcDbLine
10
92.647191279312437
20
-145.77835172817043
30
0
11
87.38588543943267
21
-136.6489638610739
31
0
0
LINE
5
167
100
AcDbEntity
8
0
100
AcDbLine
10
75.994766130878503
20
-113.04095220816889
30
0
11
75.924981233035069
21
-112.13319904882
31
0
0
LINE
5
168
100
AcDbEntity
8
0
100
AcDbLine
10
120.12449330385621
20
-28.188752891884089
30
0
11
120.12449330385621
21
-30.888892305041207
31
0
0
LINE
5
169
100
AcDbEntity
8
0
100
AcDbLine
10
175.94370983726901
20
-137.93795428631279
30
0
11
175.17061029279802
21
-138.875812750097
31
0
0
LWPOLYLINE
5
170
100
AcDbEntity
8
0
100
AcDbPolyline
90
4
70
1
43
0.0
10
95.609022173508933
20
-135.60967782649107
10
107.73337782649108
20
-128.60967782649107
10
100.73337782649106
20
-116.48532217350893
10
88.609022173508947
20
-123.48532217350893
0
LINE
5
171
100
AcDbEntity
8
0
100
AcDbLine
10
76.480935496507399
20
-116.45998443176963
30
0
11
76.146886791754781
21
-114.78974090800673
31
0
0
LINE
5
172
100
AcDbEntity
8
0
100
AcDbLine
10
176.99977094639141
20
-134.68465474441754
30
0
11
176.89201158199762
21
-135.69040881209327
31
0
0
LINE
5
173
100
AcDbEntity
8
0
100
AcDbLine
10
77.696247218040099
20
-119.83555891806132
30
0
11
76.880144095179745
21
-117.9807790933787
31
0
0
LINE
5
174
100
AcDbEntity
8
0
100
AcDbLine
10
77.605284500186428
20
-32.588315638090151
30
0
11
78.474478439863773
21
-31.871258604199383
31
0
0
LINE
5
175
100
AcDbEntity
8
0
100
AcDbLine
10
176.52389424283672
20
-136.86587440645872
30
0
11
175.94370983726901
21
-137.93795428631279
31
0
0
LINE
5
176
100
AcDbEntity
8
0
100
AcDbLine
10
83.591048871280407
20
-130.06418510514155
30
0
11
77.696247218040099
21
-119.83555891806132
31
0
0
LINE
5
177
100
AcDbEntity
8
0
100
AcDbLine
10
99.213717751568268
20
-147.83591230614343
30
0
11
98.127689759061838
21
-148.15754630518424
31
0
0
LINE
5
178
100
AcDbEntity
8
0
100
AcDbLine
10
222.67561029279818
20
-124.16681275009682
30
0
11
221.73775182901488
21
-124.93991229456694
31
0
0
LINE
5
179
100
AcDbEntity
8
0
100
AcDbLine
10
95.428468308389483
20
-147.96823177588399
30
0
11
94.199779757245523
21
-147.36443006978371
31
0
0
LINE
5
180
100
AcDbEntity
8
0
100
AcDbLine
10
89.129999999999995
20
-79.689935110654147
30
0
11
89.153267746565277
21
-78.689935110654147
31
0
0
LINE
5
181
100
AcDbEntity
8
0
100
AcDbLine
10
224.03263512616408
20
-122.14996190465845
30
0
11
223.44870983726861
21
-123.22895428631318
31
0
0
LINE
5
182
100
AcDbEntity
8
0
100
AcDbLine
10
76.889146389408893
20
-33.456514300102249
30
0
11
77.605284500186428
21
-32.588315638090151
31
0
0
LINE
5
183
100
AcDbEntity
8
0
100
AcDbLine
10
75.924981233035069
20
-112.13319904882
30
0
11
75.851702760439579
21
-110.7414850653532
31
0
0
ARC
5
184
100
AcDbEntity
8
0
100
AcDbCircle
10
227.20999665468935
20
-111.04673768010564
30
0
40
3.7999999999999901
210
0
220
0
230
1
100
AcDbArc
50
-90
51
90
0
LINE
5
185
100
AcDbEntity
8
0
100
AcDbLine
10
183.49358920869201
20
-128.6943977959431
30
0
11
183.49386668485778
21
-125.99399975062627
31
0
0
LINE
5
186
100
AcDbEntity
8
0
100
AcDbLine
10
76.345390319279218
20
-34.458643255795842
30
0
11
76.889146389408893
21
-33.456514300102249
31
0
0
LINE
5
187
100
AcDbEntity
8
0
100
AcDbLine
10
176.89201158199762
20
-135.69040881209327
30
0
11
176.52389424283672
21
-136.86587440645872
31
0
0
LINE
5
188
100
AcDbEntity
8
0
100
AcDbLine
10
176.9999960437417
20
-132.49400733149795
30
0
11
176.99977094639141
21
-134.68465474441754
31
0
0
LINE
5
189
100
AcDbEntity
8
0
100
AcDbLine
10
73.193216285035717
20
-42.406257071701049
30
0
11
75.702856098447
21
-42.408135753129372
31
0
0
LINE
5
190
100
AcDbEntity
8
0
100
AcDbLine
10
89.153267746565277
20
-78.689935110654147
30
0
11
84.02999998509884
21
-78.689935110654147
31
0
0
LINE
5
191
100
AcDbEntity
8
0
100
AcDbLine
10
94.199779757245523
20
-147.36443006978371
30
0
11
93.256905210200955
21
-146.5585543885494
31
0
0
LINE
5
192
100
AcDbEntity
8
0
100
AcDbLine
10
99.889871987918838
20
-147.49360670703791
30
0
11
99.213717751568268
21
-147.83591230614343
31
0
0
LWPOLYLINE
5
193
100
AcDbEntity
8
0
100
AcDbPolyline
90
4
70
1
43
0.0
10
164.55000000000001
20
-97.75
10
164.55000000000001
20
-111.75
10
178.55000000000001
20
-111.75
10
178.55000000000001
20
-97.75
0
LINE
5
194
100
AcDbEntity
8
0
100
AcDbLine
10
174.23275182901475
20
-139.64891229456705
30
0
11
173.1606719491607
21
-140.22909670013516
31
0
0
LINE
5
195
100
AcDbEntity
8
0
100
AcDbLine
10
80.586010564344633
20
-30.983813275142701
30
0
11
81.521927872157789
21
-30.890308525523839
31
0
0
LINE
5
196
100
AcDbEntity
8
0
100
AcDbLine
10
171.966588200817
20
-140.60304463555957
30
0
11
170.93684153864297
21
-140.70499975062629
31
0
0
LINE
5
197
100
AcDbEntity
8
0
100
AcDbLine
10
224.51179729332779
20
-114.84673768010563
30
0
11
224.51179729332779
21
-119.97438988705782
31
0
0
LINE
5
198
100
AcDbEntity
8
0
100
AcDbLine
10
76.146886791754781
20
-114.78974090800673
30
0
11
75.994766130878503
21
-113.04095220816889
31
0
0
LINE
5
199
100
AcDbEntity
8
0
100
AcDbLine
10
81.246613685613994
20
-131.41530055273466
30
0
11
83.417765363576692
21
-130.16404914250185
31
0
0
LINE
5
200
100
AcDbEntity
8
0
100
AcDbLine
10
75.902856042408928
20
-42.408285470303269
30
0
11
75.90728014227517
21
-36.498344063806627
31
0
0
ARC
5
201
100
AcDbEntity
8
0
100
AcDbCircle
10
73.193216285035717
20
-46.206257071701053
30
0
40
3.8000000000000114
210
0
220
-0
230
1
100
AcDbArc
50
89.914218370039066
51
270
0
LINE
5
202
100
AcDbEntity
8
0
100
AcDbLine
10
79.475651931159121
20
-31.3285821658123
30
0
11
80.586010564344633
21
-30.983813275142701
31
0
0
ARC
5
203
100
AcDbEntity
8
0
100
AcDbCircle
10
83.144038679972454
20
-134.70768242469052
30
0
40
3.7999999999999821
210
0
220
0
230
1
100
AcDbArc
50
119.95517827475879
51
299.95503410336732
0
LINE
5
204
100
AcDbEntity
8
0
100
AcDbLine
10
75.90728014227517
20
-36.498344063806627
30
0
11
76.002480083667393
21
-35.565384638163678
31
0
0
LINE
5
205
100
AcDbEntity
8
0
100
AcDbLine
10
175.17061029279802
20
-138.875812750097
30
0
11
174.23275182901475
21
-139.64891229456705
31
0
0
LINE
5
206
100
AcDbEntity
8
0
100
AcDbLine
10
94.129999999999995
20
-79.689935110654147
30
0
11
94.129999999999995
21
-78.689935110654147
31
0
0
LINE
5
207
100
AcDbEntity
8
0
100
AcDbLine
10
73.193216285035717
20
-50.00625707170105
30
0
11
75.697168250599262
21
-50.00625707170105
31
0
0
LINE
5
208
100
AcDbEntity
8
0
100
AcDbLine
10
75.702856098447
20
-42.408135753129372
30
0
11
75.902856042408928
21
-42.408285470303269
31
0
0
ARC
5
209
100
AcDbEntity
8
0
100
AcDbCircle
10
179.69358922875287
20
-128.69400733149797
30
0
40
3.7999999999999901
210
0
220
0
230
1
100
AcDbArc
50
270
51
359.99411264089554
0
LINE
5
210
100
AcDbEntity
8
0
100
AcDbLine
10
179.69358922875287
20
-132.49400733149795
30
0
11
176.9999960437417
21
-132.49400733149795
31
0
0
LINE
5
211
100
AcDbEntity
8
0
100
AcDbLine
10
89.129999999999995
20
-79.689935110654147
30
0
11
94.129999999999995
21
-79.689935110654147
31
0
0
LINE
5
212
100
AcDbEntity
8
0
100
AcDbLine
10
99.229897290708479
20
-33.88965887152338
30
0
11
84.02999998509884
21
-33.88965887152338
31
0
0
LINE
5
213
100
AcDbEntity
8
0
100
AcDbLine
10
84.02999998509884
20
-33.88965887152338
30
0
11
83.02999998509884
21
-33.88965887152338
31
0
0
LINE
5
214
100
AcDbEntity
8
0
100
AcDbLine
10
83.02999998509884
20
-78.689935110654147
30
0
11
84.02999998509884
21
-78.689935110654147
31
0
0
LINE
5
215
100
AcDbEntity
8
0
100
AcDbLine
10
83.02999998509884
20
-65.189796997597185
30
0
11
82.02999998509884
21
-65.189796997597185
31
0
0
LINE
5
216
100
AcDbEntity
8
0
100
AcDbLine
10
82.02999998509884
20
-65.189796997597185
30
0
11
82.02999998509884
21
-55.189796997597185
31
0
0
LINE
5
217
100
AcDbEntity
8
0
100
AcDbLine
10
82.02999998509884
20
-55.189796997597185
30
0
11
83.02999998509884
21
-55.189796997597185
31
0
0
LINE
5
218
100
AcDbEntity
8
0
100
AcDbLine
10
99.229897290708479
20
-33.88965887152338
30
0
11
100.23000001490117
21
-33.88965887152338
31
0
0
LINE
5
219
100
AcDbEntity
8
0
100
AcDbLine
10
100.23000001490117
20
-78.689935110654147
30
0
11
99.229897290708479
21
-78.689935110654147
31
0
0
LINE
5
220
100
AcDbEntity
8
0
100
AcDbLine
10
100.23000001490117
20
-55.189796997597185
30
0
11
101.23000001490115
21
-55.189796997597185
31
0
0
LINE
5
221
100
AcDbEntity
8
0
100
AcDbLine
10
101.23000001490115
20
-55.189796997597185
30
0
11
101.23000001490115
21
-65.189796997597185
31
0
0
LINE
5
222
100
AcDbEntity
8
0
100
AcDbLine
10
101.23000001490115
20
-65.189796997597185
30
0
11
100.23000001490117
21
-65.189796997597185
31
0
0
LINE
5
223
100
AcDbEntity
8
0
100
AcDbLine
10
83.02999998509884
20
-33.88965887152338
30
0
11
83.02999998509884
21
-55.189796997597185
31
0
0
LINE
5
224
100
AcDbEntity
8
0
100
AcDbLine
10
83.02999998509884
20
-65.189796997597185
30
0
11
83.02999998509884
21
-78.689935110654147
31
0
0
LINE
5
225
100
AcDbEntity
8
0
100
AcDbLine
10
100.23000001490117
20
-33.88965887152338
30
0
11
100.23000001490117
21
-55.189796997597185
31
0
0
LINE
5
226
100
AcDbEntity
8
0
100
AcDbLine
10
100.23000001490117
20
-65.189796997597185
30
0
11
100.23000001490117
21
-78.689935110654147
31
0
0
CIRCLE
5
227
100
AcDbEntity
8
0
100
AcDbCircle
10
73.193216285035717
20
-46.206257071701053
30
0
40
1.7500000000000027
210
0
220
0
230
1
0
CIRCLE
5
228
100
AcDbEntity
8
0
100
AcDbCircle
10
123.92449330385622
20
-28.188752891884089
30
0
40
1.7499999999999982
210
0
220
0
230
1
0
CIRCLE
5
229
100
AcDbEntity
8
0
100
AcDbCircle
10
227.21000502243641
20
-53.90000000000007
30
0
40
1.7500000000000071
210
0
220
0
230
1
0
CIRCLE
5
230
100
AcDbEntity
8
0
100
AcDbCircle
10
227.20500000000001
20
-111.04673768010564
30
0
40
1.7500000000000071
210
0
220
0
230
1
0
CIRCLE
5
231
100
AcDbEntity
8
0
100
AcDbCircle
10
179.69358922875287
20
-128.69400733149797
30
0
40
1.7500000000000071
210
0
220
0
230
1
0
CIRCLE
5
232
100
AcDbEntity
8
0
100
AcDbCircle
10
83.144038679972454
20
-134.70768242469052
30
0
40
1.7499999999999991
210
0
220
0
230
1
0
ENDSEC
0
SECTION
2
OBJECTS
0
DICTIONARY
5
C
100
AcDbDictionary
3
ACAD_GROUP
350
D
3
ACAD_MLINESTYLE
350
17
0
DICTIONARY
5
D
100
AcDbDictionary
0
DICTIONARY
5
1A
330
C
100
AcDbDictionary
0
DICTIONARY
5
17
100
AcDbDictionary
0
ENDSEC
0
EOF
